<svg version="1.1" viewBox="0.0 0.0 170.06561679790028 165.63254593175853" fill="none" stroke="none" stroke-linecap="square" stroke-miterlimit="10" xmlns:xlink="http://www.w3.org/1999/xlink" xmlns="http://www.w3.org/2000/svg"><clipPath id="p.0"><path d="m0 0l170.06561 0l0 165.63255l-170.06561 0l0 -165.63255z" clip-rule="nonzero"/></clipPath><g clip-path="url(#p.0)"><path fill="#000000" fill-opacity="0.0" d="m0 0l170.06561 0l0 165.63255l-170.06561 0z" fill-rule="evenodd"/><path fill="#666666" d="m69.80452 71.726776l0 0c2.174347 -3.5398407 6.804764 -4.6437836 10.342323 -2.4657288l2.8429031 1.7503586l0 0c1.6987991 1.0459366 2.9132233 2.7243195 3.3761215 4.665909c0.46289825 1.941597 0.13635254 3.9873657 -0.9078064 5.687256l0 0l0 0c-2.174347 3.5398407 -6.8047714 4.6437836 -10.342331 2.4657288l-2.8429031 -1.7503586c-3.5375595 -2.1780548 -4.642662 -6.813324 -2.4683075 -10.353165z" fill-rule="evenodd"/><path stroke="#666666" stroke-width="1.0" stroke-linejoin="round" stroke-linecap="butt" d="m69.80452 71.726776l0 0c2.174347 -3.5398407 6.804764 -4.6437836 10.342323 -2.4657288l2.8429031 1.7503586l0 0c1.6987991 1.0459366 2.9132233 2.7243195 3.3761215 4.665909c0.46289825 1.941597 0.13635254 3.9873657 -0.9078064 5.687256l0 0l0 0c-2.174347 3.5398407 -6.8047714 4.6437836 -10.342331 2.4657288l-2.8429031 -1.7503586c-3.5375595 -2.1780548 -4.642662 -6.813324 -2.4683075 -10.353165z" fill-rule="evenodd"/><path fill="#666666" d="m49.97875 58.640167l0 0c2.1726532 -3.543808 6.804264 -4.651291 10.344997 -2.4736328l2.8176613 1.7329483l0 0c1.7003212 1.0457497 2.9165306 2.724701 3.3810844 4.667511c0.46455383 1.94281 0.13938904 3.990326 -0.90395355 5.6921234l0 0l0 0c-2.1726532 3.5438004 -6.804268 4.6512833 -10.344997 2.4736252l-2.8176613 -1.7329483c-3.5407333 -2.177658 -4.6497803 -6.8158226 -2.477131 -10.359627z" fill-rule="evenodd"/><path stroke="#666666" stroke-width="1.0" stroke-linejoin="round" stroke-linecap="butt" d="m49.97875 58.640167l0 0c2.1726532 -3.543808 6.804264 -4.651291 10.344997 -2.4736328l2.8176613 1.7329483l0 0c1.7003212 1.0457497 2.9165306 2.724701 3.3810844 4.667511c0.46455383 1.94281 0.13938904 3.990326 -0.90395355 5.6921234l0 0l0 0c-2.1726532 3.5438004 -6.804268 4.6512833 -10.344997 2.4736252l-2.8176613 -1.7329483c-3.5407333 -2.177658 -4.6497803 -6.8158226 -2.477131 -10.359627z" fill-rule="evenodd"/><path fill="#666666" d="m89.281456 94.70517l0 0c-2.9410324 -2.9410248 -2.9410324 -7.709381 0 -10.650406l30.15216 -30.152164c1.4123306 -1.4123306 3.3278656 -2.2057724 5.325203 -2.2057724c1.997345 0 3.9128723 0.7934418 5.3252106 2.2057724l0 0l0 0c2.9410248 2.9410286 2.9410248 7.7093773 0 10.65041l-30.152168 30.15216l0 0c-2.9410324 2.9410324 -7.709381 2.9410324 -10.650406 0z" fill-rule="evenodd"/><path stroke="#666666" stroke-width="1.0" stroke-linejoin="round" stroke-linecap="butt" d="m89.281456 94.70517l0 0c-2.9410324 -2.9410248 -2.9410324 -7.709381 0 -10.650406l30.15216 -30.152164c1.4123306 -1.4123306 3.3278656 -2.2057724 5.325203 -2.2057724c1.997345 0 3.9128723 0.7934418 5.3252106 2.2057724l0 0l0 0c2.9410248 2.9410286 2.9410248 7.7093773 0 10.65041l-30.152168 30.15216l0 0c-2.9410324 2.9410324 -7.709381 2.9410324 -10.650406 0z" fill-rule="evenodd"/><path fill="#666666" d="m94.52079 79.37451l0 0c4.1573563 0 7.5275574 3.3702087 7.5275574 7.527565l0 42.645668c0 1.9964294 -0.79307556 3.9111023 -2.204773 5.3227844c-1.4116898 1.4116974 -3.326355 2.204773 -5.3227844 2.204773l0 0l0 0c-4.1573563 0 -7.5275574 -3.3702087 -7.5275574 -7.5275574l0 -42.645668l0 0c0 -4.1573563 3.370201 -7.527565 7.5275574 -7.527565z" fill-rule="evenodd"/><path stroke="#666666" stroke-width="1.0" stroke-linejoin="round" stroke-linecap="butt" d="m94.52079 79.37451l0 0c4.1573563 0 7.5275574 3.3702087 7.5275574 7.527565l0 42.645668c0 1.9964294 -0.79307556 3.9111023 -2.204773 5.3227844c-1.4116898 1.4116974 -3.326355 2.204773 -5.3227844 2.204773l0 0l0 0c-4.1573563 0 -7.5275574 -3.3702087 -7.5275574 -7.5275574l0 -42.645668l0 0c0 -4.1573563 3.370201 -7.527565 7.5275574 -7.527565z" fill-rule="evenodd"/><path fill="#434343" d="m81.84104 87.35108l0 0c0 -7.001404 5.6757584 -12.677162 12.677162 -12.677162l0 0c3.3621979 0 6.586685 1.3356247 8.964111 3.7130585c2.3774338 2.3774261 3.7130585 5.6019135 3.7130585 8.964104l0 0c0 7.0014114 -5.6757584 12.67717 -12.67717 12.67717l0 0c-7.001404 0 -12.677162 -5.6757584 -12.677162 -12.67717z" fill-rule="evenodd"/><path stroke="#434343" stroke-width="1.0" stroke-linejoin="round" stroke-linecap="butt" d="m81.84104 87.35108l0 0c0 -7.001404 5.6757584 -12.677162 12.677162 -12.677162l0 0c3.3621979 0 6.586685 1.3356247 8.964111 3.7130585c2.3774338 2.3774261 3.7130585 5.6019135 3.7130585 8.964104l0 0c0 7.0014114 -5.6757584 12.67717 -12.67717 12.67717l0 0c-7.001404 0 -12.677162 -5.6757584 -12.677162 -12.67717z" fill-rule="evenodd"/><path fill="#434343" d="m119.11269 52.64042l0 0c0 -7.001404 5.6757584 -12.677166 12.677162 -12.677166l0 0c3.3621979 0 6.586685 1.3356285 8.964111 3.7130585c2.3774261 2.37743 3.7130585 5.6019135 3.7130585 8.9641075l0 0c0 7.0014076 -5.675766 12.67717 -12.67717 12.67717l0 0c-7.001404 0 -12.677162 -5.675762 -12.677162 -12.67717z" fill-rule="evenodd"/><path stroke="#434343" stroke-width="1.0" stroke-linejoin="round" stroke-linecap="butt" d="m119.11269 52.64042l0 0c0 -7.001404 5.6757584 -12.677166 12.677162 -12.677166l0 0c3.3621979 0 6.586685 1.3356285 8.964111 3.7130585c2.3774261 2.37743 3.7130585 5.6019135 3.7130585 8.9641075l0 0c0 7.0014076 -5.675766 12.67717 -12.67717 12.67717l0 0c-7.001404 0 -12.677162 -5.675762 -12.677162 -12.67717z" fill-rule="evenodd"/><path fill="#434343" d="m81.84004 139.49603l0 0c0 -7.001404 5.6757584 -12.677162 12.677162 -12.677162l0 0c3.3621979 0 6.586685 1.3356247 8.964111 3.7130508c2.3774338 2.3774414 3.7130585 5.6019287 3.7130585 8.964111l0 0c0 7.001404 -5.675766 12.67717 -12.67717 12.67717l0 0c-7.001404 0 -12.677162 -5.675766 -12.677162 -12.67717z" fill-rule="evenodd"/><path stroke="#434343" stroke-width="1.0" stroke-linejoin="round" stroke-linecap="butt" d="m81.84004 139.49603l0 0c0 -7.001404 5.6757584 -12.677162 12.677162 -12.677162l0 0c3.3621979 0 6.586685 1.3356247 8.964111 3.7130508c2.3774338 2.3774414 3.7130585 5.6019287 3.7130585 8.964111l0 0c0 7.001404 -5.675766 12.67717 -12.67717 12.67717l0 0c-7.001404 0 -12.677162 -5.675766 -12.677162 -12.67717z" fill-rule="evenodd"/></g></svg>