<svg version="1.1" viewBox="0.0 0.0 170.06561679790028 165.63254593175853" fill="none" stroke="none" stroke-linecap="square" stroke-miterlimit="10" xmlns:xlink="http://www.w3.org/1999/xlink" xmlns="http://www.w3.org/2000/svg"><clipPath id="p.0"><path d="m0 0l170.06561 0l0 165.63255l-170.06561 0l0 -165.63255z" clip-rule="nonzero"/></clipPath><g clip-path="url(#p.0)"><path fill="#000000" fill-opacity="0.0" d="m0 0l170.06561 0l0 165.63255l-170.06561 0z" fill-rule="evenodd"/><path fill="#666666" d="m84.68094 71.726776l0 0c-2.1743546 -3.5398407 -6.8047714 -4.6437836 -10.342331 -2.4657288l-2.8429031 1.7503586l0 0c-1.6987915 1.0459366 -2.9132233 2.7243195 -3.3761215 4.665909c-0.46289825 1.941597 -0.13635254 3.9873657 0.9078064 5.687256l0 0l0 0c2.1743546 3.5398407 6.8047714 4.6437836 10.342331 2.4657288l2.8429031 -1.7503586c3.5375595 -2.1780548 4.642662 -6.813324 2.4683151 -10.353165z" fill-rule="evenodd"/><path stroke="#666666" stroke-width="1.0" stroke-linejoin="round" stroke-linecap="butt" d="m84.68094 71.726776l0 0c-2.1743546 -3.5398407 -6.8047714 -4.6437836 -10.342331 -2.4657288l-2.8429031 1.7503586l0 0c-1.6987915 1.0459366 -2.9132233 2.7243195 -3.3761215 4.665909c-0.46289825 1.941597 -0.13635254 3.9873657 0.9078064 5.687256l0 0l0 0c2.1743546 3.5398407 6.8047714 4.6437836 10.342331 2.4657288l2.8429031 -1.7503586c3.5375595 -2.1780548 4.642662 -6.813324 2.4683151 -10.353165z" fill-rule="evenodd"/><path fill="#666666" d="m59.964664 79.37451l0 0c-4.1573563 0 -7.527561 3.3702087 -7.527561 7.527565l0 42.645668c0 1.9964294 0.7930794 3.9111023 2.204773 5.3227844c1.4116898 1.4116974 3.326355 2.204773 5.3227882 2.204773l0 0l0 0c4.1573524 0 7.527561 -3.3702087 7.527561 -7.5275574l0 -42.645668l0 0c0 -4.1573563 -3.3702087 -7.527565 -7.527561 -7.527565z" fill-rule="evenodd"/><path stroke="#666666" stroke-width="1.0" stroke-linejoin="round" stroke-linecap="butt" d="m59.964664 79.37451l0 0c-4.1573563 0 -7.527561 3.3702087 -7.527561 7.527565l0 42.645668c0 1.9964294 0.7930794 3.9111023 2.204773 5.3227844c1.4116898 1.4116974 3.326355 2.204773 5.3227882 2.204773l0 0l0 0c4.1573524 0 7.527561 -3.3702087 7.527561 -7.5275574l0 -42.645668l0 0c0 -4.1573563 -3.3702087 -7.527565 -7.527561 -7.527565z" fill-rule="evenodd"/><path fill="#434343" d="m72.64441 87.35108l0 0c0 -7.001404 -5.6757584 -12.677162 -12.677162 -12.677162l0 0c-3.362194 0 -6.5866814 1.3356247 -8.964111 3.7130585c-2.37743 2.3774261 -3.7130547 5.6019135 -3.7130547 8.964104l0 0c0 7.0014114 5.675762 12.67717 12.677166 12.67717l0 0c7.001404 0 12.677162 -5.6757584 12.677162 -12.67717z" fill-rule="evenodd"/><path stroke="#434343" stroke-width="1.0" stroke-linejoin="round" stroke-linecap="butt" d="m72.64441 87.35108l0 0c0 -7.001404 -5.6757584 -12.677162 -12.677162 -12.677162l0 0c-3.362194 0 -6.5866814 1.3356247 -8.964111 3.7130585c-2.37743 2.3774261 -3.7130547 5.6019135 -3.7130547 8.964104l0 0c0 7.0014114 5.675762 12.67717 12.677166 12.67717l0 0c7.001404 0 12.677162 -5.6757584 12.677162 -12.67717z" fill-rule="evenodd"/><path fill="#434343" d="m72.64541 139.49603l0 0c0 -7.001404 -5.6757584 -12.677162 -12.677162 -12.677162l0 0c-3.362194 0 -6.5866814 1.3356247 -8.964111 3.7130508c-2.3774261 2.3774414 -3.7130547 5.6019287 -3.7130547 8.964111l0 0c0 7.001404 5.675762 12.67717 12.677166 12.67717l0 0c7.001404 0 12.677162 -5.675766 12.677162 -12.67717z" fill-rule="evenodd"/><path stroke="#434343" stroke-width="1.0" stroke-linejoin="round" stroke-linecap="butt" d="m72.64541 139.49603l0 0c0 -7.001404 -5.6757584 -12.677162 -12.677162 -12.677162l0 0c-3.362194 0 -6.5866814 1.3356247 -8.964111 3.7130508c-2.3774261 2.3774414 -3.7130547 5.6019287 -3.7130547 8.964111l0 0c0 7.001404 5.675762 12.67717 12.677166 12.67717l0 0c7.001404 0 12.677162 -5.675766 12.677162 -12.67717z" fill-rule="evenodd"/><path fill="#666666" d="m103.25836 60.02074l0 0c-2.174347 -3.5398407 -6.804764 -4.6437874 -10.342331 -2.4657326l-2.8428955 1.7503586l0 0c-1.6987991 1.0459404 -2.9132233 2.7243195 -3.3761215 4.6659126c-0.46289825 1.9416008 -0.13635254 3.987362 0.9078064 5.687252l0 0l0 0c2.174347 3.5398407 6.8047714 4.643791 10.342331 2.4657364l2.8428955 -1.7503586c3.5375671 -2.1780548 4.6426697 -6.813328 2.4683151 -10.3531685z" fill-rule="evenodd"/><path stroke="#666666" stroke-width="1.0" stroke-linejoin="round" stroke-linecap="butt" d="m103.25836 60.02074l0 0c-2.174347 -3.5398407 -6.804764 -4.6437874 -10.342331 -2.4657326l-2.8428955 1.7503586l0 0c-1.6987991 1.0459404 -2.9132233 2.7243195 -3.3761215 4.6659126c-0.46289825 1.9416008 -0.13635254 3.987362 0.9078064 5.687252l0 0l0 0c2.174347 3.5398407 6.8047714 4.643791 10.342331 2.4657364l2.8428955 -1.7503586c3.5375671 -2.1780548 4.6426697 -6.813328 2.4683151 -10.3531685z" fill-rule="evenodd"/><path fill="#666666" d="m122.04577 47.85801l0 0c-2.1743546 -3.5398407 -6.8047714 -4.6437874 -10.342331 -2.4657288l-2.8429031 1.7503548l0 0c-1.6987991 1.0459404 -2.9132233 2.7243195 -3.3761215 4.6659164c-0.46289825 1.9415932 -0.13635254 3.987362 0.9078064 5.687252l0 0l0 0c2.1743546 3.5398407 6.8047714 4.6437874 10.342331 2.4657288l2.8429031 -1.7503548c3.5375595 -2.1780548 4.642662 -6.813328 2.4683151 -10.3531685z" fill-rule="evenodd"/><path stroke="#666666" stroke-width="1.0" stroke-linejoin="round" stroke-linecap="butt" d="m122.04577 47.85801l0 0c-2.1743546 -3.5398407 -6.8047714 -4.6437874 -10.342331 -2.4657288l-2.8429031 1.7503548l0 0c-1.6987991 1.0459404 -2.9132233 2.7243195 -3.3761215 4.6659164c-0.46289825 1.9415932 -0.13635254 3.987362 0.9078064 5.687252l0 0l0 0c2.1743546 3.5398407 6.8047714 4.6437874 10.342331 2.4657288l2.8429031 -1.7503548c3.5375595 -2.1780548 4.642662 -6.813328 2.4683151 -10.3531685z" fill-rule="evenodd"/><path fill="#434343" d="m141.06699 44.794655l0 0c0 -7.001404 -5.675766 -12.677166 -12.67717 -12.677166l0 0c-3.3621902 0 -6.5866776 1.3356247 -8.964104 3.7130547c-2.3774338 2.37743 -3.7130585 5.6019173 -3.7130585 8.964111l0 0c0 7.001404 5.6757584 12.677166 12.677162 12.677166l0 0c7.001404 0 12.67717 -5.675762 12.67717 -12.677166z" fill-rule="evenodd"/><path stroke="#434343" stroke-width="1.0" stroke-linejoin="round" stroke-linecap="butt" d="m141.06699 44.794655l0 0c0 -7.001404 -5.675766 -12.677166 -12.67717 -12.677166l0 0c-3.3621902 0 -6.5866776 1.3356247 -8.964104 3.7130547c-2.3774338 2.37743 -3.7130585 5.6019173 -3.7130585 8.964111l0 0c0 7.001404 5.6757584 12.677166 12.677162 12.677166l0 0c7.001404 0 12.67717 -5.675762 12.67717 -12.677166z" fill-rule="evenodd"/></g></svg>