<svg version="1.1" viewBox="0.0 0.0 170.33333333333334 174.45931758530185" fill="none" stroke="none" stroke-linecap="square" stroke-miterlimit="10" xmlns:xlink="http://www.w3.org/1999/xlink" xmlns="http://www.w3.org/2000/svg"><clipPath id="p.0"><path d="m0 0l170.33333 0l0 174.45932l-170.33333 0l0 -174.45932z" clip-rule="nonzero"/></clipPath><g clip-path="url(#p.0)"><path fill="#000000" fill-opacity="0.0" d="m0 0l170.33333 0l0 174.45932l-170.33333 0z" fill-rule="evenodd"/><path fill="#666666" d="m39.614437 66.76903l0 0c0 -4.1573563 3.370201 -7.5275574 7.5275574 -7.5275574l15.905514 0l0 0c1.9964294 0 3.9110947 0.7930794 5.3227844 2.2047691c1.4116898 1.4116936 2.204773 3.3263588 2.204773 5.3227882l0 0l0 0c0 4.1573563 -3.370201 7.5275574 -7.5275574 7.5275574l-15.905514 0c-4.1573563 0 -7.5275574 -3.370201 -7.5275574 -7.5275574z" fill-rule="evenodd"/><path stroke="#666666" stroke-width="1.0" stroke-linejoin="round" stroke-linecap="butt" d="m39.614437 66.76903l0 0c0 -4.1573563 3.370201 -7.5275574 7.5275574 -7.5275574l15.905514 0l0 0c1.9964294 0 3.9110947 0.7930794 5.3227844 2.2047691c1.4116898 1.4116936 2.204773 3.3263588 2.204773 5.3227882l0 0l0 0c0 4.1573563 -3.370201 7.5275574 -7.5275574 7.5275574l-15.905514 0c-4.1573563 0 -7.5275574 -3.370201 -7.5275574 -7.5275574z" fill-rule="evenodd"/><path fill="#666666" d="m40.455788 66.05268l0 0c2.9397202 -2.939724 7.705948 -2.939724 10.645668 0l30.141731 30.141731c1.411705 1.411705 2.2047958 3.3263855 2.2047958 5.32283c0 1.9964523 -0.7930908 3.9111328 -2.2047958 5.322838l0 0l0 0c-2.9397202 2.9397202 -7.705948 2.9397202 -10.645668 0l-30.141731 -30.141731l0 0c-2.9397202 -2.9397202 -2.9397202 -7.705948 0 -10.645668z" fill-rule="evenodd"/><path stroke="#666666" stroke-width="1.0" stroke-linejoin="round" stroke-linecap="butt" d="m40.455788 66.05268l0 0c2.9397202 -2.939724 7.705948 -2.939724 10.645668 0l30.141731 30.141731c1.411705 1.411705 2.2047958 3.3263855 2.2047958 5.32283c0 1.9964523 -0.7930908 3.9111328 -2.2047958 5.322838l0 0l0 0c-2.9397202 2.9397202 -7.705948 2.9397202 -10.645668 0l-30.141731 -30.141731l0 0c-2.9397202 -2.9397202 -2.9397202 -7.705948 0 -10.645668z" fill-rule="evenodd"/><path fill="#666666" d="m68.47294 105.86239l0 0c0 -4.1573563 3.3702087 -7.5275574 7.527565 -7.5275574l42.645668 0c1.9964294 0 3.9110947 0.79307556 5.3227844 2.204773c1.4116898 1.4116898 2.204773 3.326355 2.204773 5.3227844l0 0l0 0c0 4.1573563 -3.370201 7.5275574 -7.5275574 7.5275574l-42.645668 0l0 0c-4.1573563 0 -7.527565 -3.370201 -7.527565 -7.5275574z" fill-rule="evenodd"/><path stroke="#666666" stroke-width="1.0" stroke-linejoin="round" stroke-linecap="butt" d="m68.47294 105.86239l0 0c0 -4.1573563 3.3702087 -7.5275574 7.527565 -7.5275574l42.645668 0c1.9964294 0 3.9110947 0.79307556 5.3227844 2.204773c1.4116898 1.4116898 2.204773 3.326355 2.204773 5.3227844l0 0l0 0c0 4.1573563 -3.370201 7.5275574 -7.5275574 7.5275574l-42.645668 0l0 0c-4.1573563 0 -7.527565 -3.370201 -7.527565 -7.5275574z" fill-rule="evenodd"/><path fill="#434343" d="m76.711975 118.53951l0 0c-7.001404 0 -12.677162 -5.6757584 -12.677162 -12.677162l0 0c0 -3.3621979 1.3356247 -6.586685 3.7130585 -8.964111c2.3774261 -2.3774338 5.6019135 -3.7130585 8.964104 -3.7130585l0 0c7.0014114 0 12.67717 5.6757584 12.67717 12.67717l0 0c0 7.001404 -5.6757584 12.677162 -12.67717 12.677162z" fill-rule="evenodd"/><path stroke="#434343" stroke-width="1.0" stroke-linejoin="round" stroke-linecap="butt" d="m76.711975 118.53951l0 0c-7.001404 0 -12.677162 -5.6757584 -12.677162 -12.677162l0 0c0 -3.3621979 1.3356247 -6.586685 3.7130585 -8.964111c2.3774261 -2.3774338 5.6019135 -3.7130585 8.964104 -3.7130585l0 0c7.0014114 0 12.67717 5.6757584 12.67717 12.67717l0 0c0 7.001404 -5.6757584 12.677162 -12.67717 12.677162z" fill-rule="evenodd"/><path fill="#434343" d="m41.738846 81.270485l0 0c-7.001404 0 -12.677164 -5.6757584 -12.677164 -12.677162l0 0c0 -3.3621979 1.3356247 -6.5866814 3.7130566 -8.964111c2.3774261 -2.37743 5.6019135 -3.7130547 8.9641075 -3.7130547l0 0c7.001404 0 12.677166 5.6757584 12.677166 12.677166l0 0c0 7.001404 -5.675762 12.677162 -12.677166 12.677162z" fill-rule="evenodd"/><path stroke="#434343" stroke-width="1.0" stroke-linejoin="round" stroke-linecap="butt" d="m41.738846 81.270485l0 0c-7.001404 0 -12.677164 -5.6757584 -12.677164 -12.677162l0 0c0 -3.3621979 1.3356247 -6.5866814 3.7130566 -8.964111c2.3774261 -2.37743 5.6019135 -3.7130547 8.9641075 -3.7130547l0 0c7.001404 0 12.677166 5.6757584 12.677166 12.677166l0 0c0 7.001404 -5.675762 12.677162 -12.677166 12.677162z" fill-rule="evenodd"/><path fill="#434343" d="m128.59447 118.54314l0 0c-7.001404 0 -12.67717 -5.6757584 -12.67717 -12.677162l0 0c0 -3.3621979 1.3356247 -6.586685 3.7130585 -8.964111c2.3774261 -2.3774338 5.6019135 -3.7130585 8.964111 -3.7130585l0 0c7.001404 0 12.67717 5.675766 12.67717 12.67717l0 0c0 7.001404 -5.675766 12.677162 -12.67717 12.677162z" fill-rule="evenodd"/><path stroke="#434343" stroke-width="1.0" stroke-linejoin="round" stroke-linecap="butt" d="m128.59447 118.54314l0 0c-7.001404 0 -12.67717 -5.6757584 -12.67717 -12.677162l0 0c0 -3.3621979 1.3356247 -6.586685 3.7130585 -8.964111c2.3774261 -2.3774338 5.6019135 -3.7130585 8.964111 -3.7130585l0 0c7.001404 0 12.67717 5.675766 12.67717 12.67717l0 0c0 7.001404 -5.675766 12.677162 -12.67717 12.677162z" fill-rule="evenodd"/><path fill="#666666" d="m75.19826 66.76903l0 0c0 -4.1573563 3.370201 -7.5275574 7.5275574 -7.5275574l4.8818893 0l0 0c1.9964371 0 3.9110947 0.7930794 5.322792 2.2047691c1.4116898 1.4116936 2.2047653 3.3263588 2.2047653 5.3227882l0 0l0 0c0 4.1573563 -3.370201 7.5275574 -7.5275574 7.5275574l-4.8818893 0c-4.1573563 0 -7.5275574 -3.370201 -7.5275574 -7.5275574z" fill-rule="evenodd"/><path stroke="#666666" stroke-width="1.0" stroke-linejoin="round" stroke-linecap="butt" d="m75.19826 66.76903l0 0c0 -4.1573563 3.370201 -7.5275574 7.5275574 -7.5275574l4.8818893 0l0 0c1.9964371 0 3.9110947 0.7930794 5.322792 2.2047691c1.4116898 1.4116936 2.2047653 3.3263588 2.2047653 5.3227882l0 0l0 0c0 4.1573563 -3.370201 7.5275574 -7.5275574 7.5275574l-4.8818893 0c-4.1573563 0 -7.5275574 -3.370201 -7.5275574 -7.5275574z" fill-rule="evenodd"/><path fill="#666666" d="m99.75993 66.76903l0 0c0 -4.1573563 3.3702087 -7.5275574 7.527565 -7.5275574l4.8818893 0l0 0c1.9964294 0 3.9110947 0.7930794 5.3227844 2.2047691c1.4116898 1.4116936 2.204773 3.3263588 2.204773 5.3227882l0 0l0 0c0 4.1573563 -3.370201 7.5275574 -7.5275574 7.5275574l-4.8818893 0c-4.1573563 0 -7.527565 -3.370201 -7.527565 -7.5275574z" fill-rule="evenodd"/><path stroke="#666666" stroke-width="1.0" stroke-linejoin="round" stroke-linecap="butt" d="m99.75993 66.76903l0 0c0 -4.1573563 3.3702087 -7.5275574 7.527565 -7.5275574l4.8818893 0l0 0c1.9964294 0 3.9110947 0.7930794 5.3227844 2.2047691c1.4116898 1.4116936 2.204773 3.3263588 2.204773 5.3227882l0 0l0 0c0 4.1573563 -3.370201 7.5275574 -7.5275574 7.5275574l-4.8818893 0c-4.1573563 0 -7.527565 -3.370201 -7.527565 -7.5275574z" fill-rule="evenodd"/></g></svg>