<svg version="1.1" viewBox="0.0 0.0 170.06561679790028 165.63254593175853" fill="none" stroke="none" stroke-linecap="square" stroke-miterlimit="10" xmlns:xlink="http://www.w3.org/1999/xlink" xmlns="http://www.w3.org/2000/svg"><clipPath id="p.0"><path d="m0 0l170.06561 0l0 165.63255l-170.06561 0l0 -165.63255z" clip-rule="nonzero"/></clipPath><g clip-path="url(#p.0)"><path fill="#000000" fill-opacity="0.0" d="m0 0l170.06561 0l0 165.63255l-170.06561 0z" fill-rule="evenodd"/><path fill="#434343" d="m68.93569 75.79265l0 0c0 -2.9571152 2.3972168 -5.3543243 5.354332 -5.3543243l0 0c1.4200592 0 2.781952 0.5641098 3.786087 1.5682449c1.0041275 1.0041275 1.5682449 2.3660278 1.5682449 3.7860794l0 0c0 2.9571152 -2.3972168 5.354332 -5.354332 5.354332l0 0c-2.9571152 0 -5.354332 -2.3972168 -5.354332 -5.354332z" fill-rule="evenodd"/><path fill="#434343" d="m90.41863 75.79265l0 0c0 -2.9571152 2.3972168 -5.3543243 5.354332 -5.3543243l0 0c1.4200592 0 2.781952 0.5641098 3.786087 1.5682449c1.0041275 1.0041275 1.5682449 2.3660278 1.5682449 3.7860794l0 0c0 2.9571152 -2.3972168 5.354332 -5.354332 5.354332l0 0c-2.9571152 0 -5.354332 -2.3972168 -5.354332 -5.354332z" fill-rule="evenodd"/><path fill="#000000" fill-opacity="0.0" d="m66.311966 82.125885l0 0c-4.7607 -8.995155 -2.4509735 -20.10463 5.5005417 -26.456837c7.951515 -6.352207 19.296776 -6.1512604 27.018349 0.47854996c7.7215805 6.6298103 9.636436 17.81411 4.5601807 26.635033l-18.35823 -10.564781z" fill-rule="evenodd"/><path fill="#000000" fill-opacity="0.0" d="m66.311966 82.125885l0 0c-4.7607 -8.995155 -2.4509735 -20.10463 5.5005417 -26.456837c7.951515 -6.352207 19.296776 -6.1512604 27.018349 0.47854996c7.7215805 6.6298103 9.636436 17.81411 4.5601807 26.635033" fill-rule="evenodd"/><path stroke="#434343" stroke-width="3.0" stroke-linejoin="round" stroke-linecap="butt" d="m66.311966 82.125885l0 0c-4.7607 -8.995155 -2.4509735 -20.10463 5.5005417 -26.456837c7.951515 -6.352207 19.296776 -6.1512604 27.018349 0.47854996c7.7215805 6.6298103 9.636436 17.81411 4.5601807 26.635033" fill-rule="evenodd"/><path fill="#434343" d="m87.00339 86.51729c-3.3891754 0 -6.502487 0.75440216 -9.339935 2.2632065c-2.8374481 1.5031662 -5.061249 3.6397018 -6.6713867 6.4095917c-1.6045074 2.7642593 -2.4067612 5.8409805 -2.4067612 9.230156c0 5.1175385 1.728363 9.382156 5.1850967 12.793854c3.4623642 3.406067 7.8733597 5.1090927 13.232986 5.1090927c6.3673706 0 11.192154 -2.8374481 14.474365 -8.512344l-6.3251495 -3.0570145c-0.7262497 1.452507 -1.815628 2.65448 -3.2681274 3.6059265c-1.452507 0.95144653 -3.0795364 1.4271698 -4.8810883 1.4271698c-3.0795364 0 -5.6580124 -1.055603 -7.735428 -3.1667938c-2.071785 -2.1111984 -3.1076813 -4.8444977 -3.1076813 -8.19989c0 -3.2484283 1.0190048 -5.953575 3.0570145 -8.11544c2.0436401 -2.1618729 4.639 -3.2428055 7.7860947 -3.2428055c1.8015518 0 3.4285812 0.484169 4.8810883 1.452507c1.4524994 0.968338 2.5418777 2.15905 3.2681274 3.5721436l6.3251495 -3.1076813c-3.2822113 -5.641121 -8.106995 -8.461678 -14.474365 -8.461678z" fill-rule="evenodd"/></g></svg>