<svg version="1.1" viewBox="0.0 0.0 170.06561679790028 165.63254593175853" fill="none" stroke="none" stroke-linecap="square" stroke-miterlimit="10" xmlns:xlink="http://www.w3.org/1999/xlink" xmlns="http://www.w3.org/2000/svg"><clipPath id="p.0"><path d="m0 0l170.06561 0l0 165.63255l-170.06561 0l0 -165.63255z" clip-rule="nonzero"/></clipPath><g clip-path="url(#p.0)"><path fill="#000000" fill-opacity="0.0" d="m0 0l170.06561 0l0 165.63255l-170.06561 0z" fill-rule="evenodd"/><path fill="#666666" d="m85.031494 31.359562l0 0c-4.1573563 0 -7.5275574 3.370201 -7.5275574 7.5275574l0 19.905514l0 0c0 1.9964333 0.7930832 3.9110985 2.204773 5.3227844c1.4116898 1.4116974 3.326355 2.204773 5.3227844 2.204773l0 0l0 0c4.1573563 0 7.5275574 -3.370201 7.5275574 -7.5275574l0 -19.905514c0 -4.1573563 -3.370201 -7.5275574 -7.5275574 -7.5275574z" fill-rule="evenodd"/><path stroke="#666666" stroke-width="1.0" stroke-linejoin="round" stroke-linecap="butt" d="m85.031494 31.359562l0 0c-4.1573563 0 -7.5275574 3.370201 -7.5275574 7.5275574l0 19.905514l0 0c0 1.9964333 0.7930832 3.9110985 2.204773 5.3227844c1.4116898 1.4116974 3.326355 2.204773 5.3227844 2.204773l0 0l0 0c4.1573563 0 7.5275574 -3.370201 7.5275574 -7.5275574l0 -19.905514c0 -4.1573563 -3.370201 -7.5275574 -7.5275574 -7.5275574z" fill-rule="evenodd"/><path fill="#666666" d="m128.47484 108.02661l0 0c2.139557 -3.5659332 0.9812927 -8.187881 -2.587059 -10.32341l-19.865265 -11.888618l0 0c-1.7135849 -1.0255203 -3.7651367 -1.3287735 -5.7033386 -0.8430557c-1.9382019 0.48571014 -3.6042938 1.7206116 -4.6317444 3.4330368l0 0l0 0c-2.1395645 3.5659332 -0.98130035 8.187874 2.5870514 10.323402l19.865265 11.888626c3.5683517 2.135521 8.195526 0.97595215 10.335091 -2.589981z" fill-rule="evenodd"/><path stroke="#666666" stroke-width="1.0" stroke-linejoin="round" stroke-linecap="butt" d="m128.47484 108.02661l0 0c2.139557 -3.5659332 0.9812927 -8.187881 -2.587059 -10.32341l-19.865265 -11.888618l0 0c-1.7135849 -1.0255203 -3.7651367 -1.3287735 -5.7033386 -0.8430557c-1.9382019 0.48571014 -3.6042938 1.7206116 -4.6317444 3.4330368l0 0l0 0c-2.1395645 3.5659332 -0.98130035 8.187874 2.5870514 10.323402l19.865265 11.888626c3.5683517 2.135521 8.195526 0.97595215 10.335091 -2.589981z" fill-rule="evenodd"/><path fill="#666666" d="m41.821323 108.026535l0 0c-2.1395607 -3.5659332 -0.98202896 -8.18911 2.585415 -10.326141l19.837044 -11.883156l0 0c1.71315 -1.0262375 3.7642822 -1.3301926 5.702179 -0.84498596c1.9378967 0.48519897 3.6038132 1.7198105 4.6312714 3.4322357l0 0l0 0c2.139557 3.5659332 0.98202515 8.189102 -2.5854187 10.326141l-19.837044 11.883148c-3.5674438 2.1370392 -8.193886 0.9786911 -10.3334465 -2.5872421z" fill-rule="evenodd"/><path stroke="#666666" stroke-width="1.0" stroke-linejoin="round" stroke-linecap="butt" d="m41.821323 108.026535l0 0c-2.1395607 -3.5659332 -0.98202896 -8.18911 2.585415 -10.326141l19.837044 -11.883156l0 0c1.71315 -1.0262375 3.7642822 -1.3301926 5.702179 -0.84498596c1.9378967 0.48519897 3.6038132 1.7198105 4.6312714 3.4322357l0 0l0 0c2.139557 3.5659332 0.98202515 8.189102 -2.5854187 10.326141l-19.837044 11.883148c-3.5674438 2.1370392 -8.193886 0.9786911 -10.3334465 -2.5872421z" fill-rule="evenodd"/><path fill="#666666" d="m85.70302 68.98993c-2.1537094 0 -4.0807114 0.48086548 -5.781006 1.4425888c-1.6968613 0.9582977 -3.0210342 2.297844 -3.9725113 4.018654c-0.9480438 1.7173691 -1.4220657 3.6734543 -1.4220657 5.8682556c0 2.1948013 0.4740219 4.1474533 1.4220657 5.857956c0.95147705 1.7105026 2.27565 3.0466156 3.9725113 4.0083466c1.7002945 0.9582901 3.6272964 1.437439 5.781006 1.437439c2.6380386 0 4.8947983 -0.6903839 6.7702713 -2.0711517c1.8789139 -1.384201 3.1361084 -3.280182 3.7715683 -5.687935l-5.956192 0c-0.4431076 0.93081665 -1.071701 1.6383743 -1.8857803 2.122673c-0.81064606 0.4842987 -1.7329254 0.72644806 -2.7668457 0.72644806c-1.665947 0 -3.0158768 -0.57875824 -4.049797 -1.7362671c-1.0339203 -1.1609421 -1.5508804 -2.7134476 -1.5508804 -4.657509c0 -1.940628 0.51696014 -3.491417 1.5508804 -4.652359c1.0339203 -1.1609421 2.38385 -1.7414169 4.049797 -1.7414169c1.0339203 0 1.9561996 0.24386597 2.7668457 0.7316055c0.8140793 0.4842987 1.4426727 1.1901321 1.8857803 2.1175156l5.956192 0c-0.6354599 -2.4043198 -1.8926544 -4.302017 -3.7715683 -5.6930847c-1.875473 -1.3945084 -4.1322327 -2.0917587 -6.7702713 -2.0917587z" fill-rule="evenodd"/></g></svg>