<svg version="1.1" viewBox="0.0 0.0 170.06561679790028 165.63254593175853" fill="none" stroke="none" stroke-linecap="square" stroke-miterlimit="10" xmlns:xlink="http://www.w3.org/1999/xlink" xmlns="http://www.w3.org/2000/svg"><clipPath id="p.0"><path d="m0 0l170.06561 0l0 165.63255l-170.06561 0l0 -165.63255z" clip-rule="nonzero"/></clipPath><g clip-path="url(#p.0)"><path fill="#000000" fill-opacity="0.0" d="m0 0l170.06561 0l0 165.63255l-170.06561 0z" fill-rule="evenodd"/><path fill="#434343" d="m68.93569 62.230972l0 0c0 -2.9571152 2.3972168 -5.354332 5.354332 -5.354332l0 0c1.4200592 0 2.781952 0.5641136 3.786087 1.5682487c1.0041275 1.0041313 1.5682449 2.366024 1.5682449 3.7860832l0 0c0 2.9571152 -2.3972168 5.354332 -5.354332 5.354332l0 0c-2.9571152 0 -5.354332 -2.3972168 -5.354332 -5.354332z" fill-rule="evenodd"/><path fill="#434343" d="m90.41863 62.230972l0 0c0 -2.9571152 2.3972168 -5.354332 5.354332 -5.354332l0 0c1.4200592 0 2.781952 0.5641136 3.786087 1.5682487c1.0041275 1.0041313 1.5682449 2.366024 1.5682449 3.7860832l0 0c0 2.9571152 -2.3972168 5.354332 -5.354332 5.354332l0 0c-2.9571152 0 -5.354332 -2.3972168 -5.354332 -5.354332z" fill-rule="evenodd"/><path fill="#434343" d="m87.00339 72.95561c-3.3891754 0 -6.502487 0.75440216 -9.339935 2.2631989c-2.8374481 1.5031738 -5.061249 3.6397018 -6.6713867 6.4095993c-1.6045074 2.7642593 -2.4067612 5.840973 -2.4067612 9.230148c0 5.117546 1.728363 9.382164 5.1850967 12.793854c3.4623642 3.406067 7.8733597 5.1091003 13.232986 5.1091003c6.3673706 0 11.192154 -2.8374481 14.474365 -8.512344l-6.3251495 -3.0570145c-0.7262497 1.4524994 -1.815628 2.65448 -3.2681274 3.605919c-1.452507 0.95144653 -3.0795364 1.4271698 -4.8810883 1.4271698c-3.0795364 0 -5.6580124 -1.0555954 -7.735428 -3.1667938c-2.071785 -2.1111984 -3.1076813 -4.84449 -3.1076813 -8.19989c0 -3.2484283 1.0190048 -5.953575 3.0570145 -8.11544c2.0436401 -2.1618652 4.639 -3.2427979 7.7860947 -3.2427979c1.8015518 0 3.4285812 0.484169 4.8810883 1.452507c1.4524994 0.9683304 2.5418777 2.15905 3.2681274 3.5721436l6.3251495 -3.1076813c-3.2822113 -5.641121 -8.106995 -8.461678 -14.474365 -8.461678z" fill-rule="evenodd"/></g></svg>