<svg version="1.1" viewBox="0.0 0.0 170.06561679790028 165.63254593175853" fill="none" stroke="none" stroke-linecap="square" stroke-miterlimit="10" xmlns:xlink="http://www.w3.org/1999/xlink" xmlns="http://www.w3.org/2000/svg"><clipPath id="p.0"><path d="m0 0l170.06561 0l0 165.63255l-170.06561 0l0 -165.63255z" clip-rule="nonzero"/></clipPath><g clip-path="url(#p.0)"><path fill="#000000" fill-opacity="0.0" d="m0 0l170.06561 0l0 165.63255l-170.06561 0z" fill-rule="evenodd"/><path fill="#666666" d="m85.03159 31.358767l0 0c-4.1573563 0 -7.5275574 3.370203 -7.5275574 7.5275593l0 42.64567c0 1.9964294 0.79307556 3.9110947 2.2047653 5.3227844c1.4116974 1.4116898 3.326355 2.204773 5.322792 2.204773l0 0l0 0c4.1573563 0 7.5275574 -3.370201 7.5275574 -7.5275574l0 -42.64567l0 0c0 -4.1573563 -3.370201 -7.5275593 -7.5275574 -7.5275593z" fill-rule="evenodd"/><path stroke="#666666" stroke-width="1.0" stroke-linejoin="round" stroke-linecap="butt" d="m85.03159 31.358767l0 0c-4.1573563 0 -7.5275574 3.370203 -7.5275574 7.5275593l0 42.64567c0 1.9964294 0.79307556 3.9110947 2.2047653 5.3227844c1.4116974 1.4116898 3.326355 2.204773 5.322792 2.204773l0 0l0 0c4.1573563 0 7.5275574 -3.370201 7.5275574 -7.5275574l0 -42.64567l0 0c0 -4.1573563 -3.370201 -7.5275593 -7.5275574 -7.5275593z" fill-rule="evenodd"/><path fill="#666666" d="m128.4743 108.02646l0 0c2.139557 -3.5659332 0.9814606 -8.188171 -2.58667 -10.324059l-36.590454 -21.90306c-1.7134781 -1.0256882 -3.7649307 -1.3291168 -5.703064 -0.8435211c-1.9381332 0.4855957 -3.6041794 1.7204285 -4.63163 3.432846l0 0l0 0c-2.139557 3.5659332 -0.9814682 8.188171 2.5866623 10.324059l36.590454 21.90306l0 0c3.5681381 2.1358871 8.195137 0.9766083 10.334702 -2.589325z" fill-rule="evenodd"/><path stroke="#666666" stroke-width="1.0" stroke-linejoin="round" stroke-linecap="butt" d="m128.4743 108.02646l0 0c2.139557 -3.5659332 0.9814606 -8.188171 -2.58667 -10.324059l-36.590454 -21.90306c-1.7134781 -1.0256882 -3.7649307 -1.3291168 -5.703064 -0.8435211c-1.9381332 0.4855957 -3.6041794 1.7204285 -4.63163 3.432846l0 0l0 0c-2.139557 3.5659332 -0.9814682 8.188171 2.5866623 10.324059l36.590454 21.90306l0 0c3.5681381 2.1358871 8.195137 0.9766083 10.334702 -2.589325z" fill-rule="evenodd"/><path fill="#666666" d="m41.820755 108.02646l0 0c-2.1395607 -3.5659332 -0.981472 -8.188171 2.5866623 -10.324059l36.590454 -21.90306c1.7134781 -1.0256882 3.7649307 -1.3291168 5.703064 -0.8435211c1.9381256 0.4855957 3.6041794 1.7204285 4.63163 3.432846l0 0l0 0c2.139557 3.5659332 0.9814682 8.188171 -2.5866623 10.324059l-36.590454 21.90306l0 0c-3.5681343 2.1358871 -8.195137 0.9766083 -10.334694 -2.589325z" fill-rule="evenodd"/><path stroke="#666666" stroke-width="1.0" stroke-linejoin="round" stroke-linecap="butt" d="m41.820755 108.02646l0 0c-2.1395607 -3.5659332 -0.981472 -8.188171 2.5866623 -10.324059l36.590454 -21.90306c1.7134781 -1.0256882 3.7649307 -1.3291168 5.703064 -0.8435211c1.9381256 0.4855957 3.6041794 1.7204285 4.63163 3.432846l0 0l0 0c2.139557 3.5659332 0.9814682 8.188171 -2.5866623 10.324059l-36.590454 21.90306l0 0c-3.5681343 2.1358871 -8.195137 0.9766083 -10.334694 -2.589325z" fill-rule="evenodd"/><path fill="#000000" d="m72.49746 82.81628l0 0c0 -6.923134 5.6123047 -12.535439 12.535431 -12.535439l0 0c3.3246078 0 6.5130463 1.320694 8.863892 3.671547c2.350853 2.3508453 3.671547 5.5392838 3.671547 8.863892l0 0c0 6.923126 -5.6123047 12.535431 -12.535439 12.535431l0 0c-6.923126 0 -12.535431 -5.6123047 -12.535431 -12.535431z" fill-rule="evenodd"/></g></svg>